<svg id="visual" viewBox="0 0 960 540" width="960" height="540" xmlns="http://www.w3.org/2000/svg" xmlns:xlink="http://www.w3.org/1999/xlink" version="1.1"><rect x="0" y="0" width="960" height="540" fill="#f2fbff"></rect><path d="M618 0L596.2 7C574.3 14 530.7 28 485.5 41.8C440.3 55.7 393.7 69.3 393.7 83.2C393.7 97 440.3 111 449 124.8C457.7 138.7 428.3 152.3 412.5 166.2C396.7 180 394.3 194 420.3 207.8C446.3 221.7 500.7 235.3 535.8 249.2C571 263 587 277 554 290.8C521 304.7 439 318.3 437 332.2C435 346 513 360 531.2 373.8C549.3 387.7 507.7 401.3 511.8 415.2C516 429 566 443 566.5 456.8C567 470.7 518 484.3 498.2 498.2C478.3 512 487.7 526 492.3 533L497 540" fill="none" stroke-linecap="round" stroke-linejoin="miter" stroke="#aeaeae" stroke-width="40"></path></svg>